<svg width="411" height="111" viewBox="0 0 411 111" fill="none" xmlns="http://www.w3.org/2000/svg">
<path d="M149.624 57.5927H169.232L169.298 60.7617H149.03L149.624 57.5927ZM158.339 32.901L159.593 34.2874L146.191 73.0416C146.191 73.3057 146.411 73.5477 146.851 73.7678C147.292 73.9439 147.886 74.0979 148.634 74.23C149.426 74.318 150.285 74.362 151.209 74.362H152.529V77.0688H138.005V74.362H138.401C139.545 74.362 140.491 74.1419 141.24 73.7018C142.032 73.2617 142.648 72.4034 143.088 71.127L157.349 30.1942H163.291L178.145 72.3814C178.497 73.2617 179.026 73.8118 179.73 74.0319C180.478 74.252 181.38 74.362 182.437 74.362H182.767V77.0688H165.997V74.362H167.054C167.89 74.362 168.726 74.34 169.563 74.296C170.399 74.252 171.081 74.1859 171.609 74.0979C172.181 73.9659 172.467 73.8338 172.467 73.7018L158.339 32.901ZM215.937 72.1173C215.937 73.0856 216.444 73.7238 217.456 74.0319C218.468 74.34 219.745 74.494 221.285 74.494H221.417V77.0688H210.524V69.4765L210.062 69.5425V33.8913C210.062 33.2311 209.886 32.7249 209.533 32.3728C209.181 32.0207 208.631 31.7346 207.883 31.5146C207.179 31.2945 206.276 31.0964 205.176 30.9204L204.45 30.7883V28.1475H215.937V72.1173ZM199.3 42.606C201.237 42.606 202.931 42.9141 204.384 43.5303C205.88 44.1025 207.245 45.0268 208.477 46.3032C209.754 47.5796 210.964 49.2521 212.108 51.3208L211.514 55.348C210.546 53.1473 209.467 51.3648 208.279 50.0004C207.135 48.5919 205.836 47.5576 204.384 46.8974C202.975 46.2372 201.413 45.9071 199.696 45.9071C198.024 45.9071 196.549 46.2592 195.273 46.9634C194.041 47.6236 192.984 48.5919 192.104 49.8683C191.268 51.1447 190.63 52.6852 190.189 54.4898C189.749 56.2503 189.529 58.2309 189.529 60.4316C189.529 62.5443 189.727 64.4809 190.123 66.2415C190.564 67.958 191.202 69.4325 192.038 70.6648C192.874 71.8972 193.909 72.8435 195.141 73.5037C196.373 74.1199 197.782 74.428 199.366 74.428C201.259 74.428 202.909 74.0539 204.318 73.3057C205.77 72.5134 207.069 71.3911 208.213 69.9386C209.401 68.4421 210.502 66.6376 211.514 64.5249L212.042 68.2881C210.81 70.4008 209.555 72.1613 208.279 73.5698C207.003 74.9342 205.594 75.9685 204.054 76.6727C202.557 77.3769 200.797 77.7291 198.772 77.7291C195.735 77.7291 193.05 77.0248 190.718 75.6164C188.429 74.1639 186.624 72.1393 185.304 69.5425C183.983 66.9457 183.323 63.9087 183.323 60.4316C183.323 56.9105 183.983 53.8296 185.304 51.1887C186.668 48.5039 188.561 46.4132 190.982 44.9168C193.402 43.3763 196.175 42.606 199.3 42.606ZM222.386 77.0688V74.494H222.518C223.53 74.494 224.432 74.428 225.225 74.296C226.017 74.1639 226.633 73.9219 227.073 73.5698C227.557 73.2176 227.8 72.7335 227.8 72.1173V49.0101C227.8 48.3498 227.623 47.8657 227.271 47.5576C226.963 47.2055 226.457 46.9194 225.753 46.6993C225.049 46.4793 224.168 46.2592 223.112 46.0391L222.386 45.9071V43.2663H233.147V50.2644L233.675 50.9247V73.8338C233.675 73.9659 233.917 74.0759 234.402 74.1639C234.93 74.252 235.568 74.34 236.316 74.428C237.064 74.472 237.769 74.494 238.429 74.494H238.561V77.0688H222.386ZM260.81 77.0688H244.635V74.494H244.701C245.317 74.494 245.999 74.472 246.747 74.428C247.496 74.384 248.134 74.318 248.662 74.23C249.234 74.0979 249.52 73.9659 249.52 73.8338V53.6975C249.52 51.937 249.322 50.5065 248.926 49.4062C248.53 48.2618 247.914 47.4476 247.078 46.9634C246.241 46.4352 245.141 46.1712 243.777 46.1712C242.28 46.1712 240.872 46.4793 239.551 47.0955C238.231 47.7116 236.998 48.6359 235.854 49.8683C234.71 51.0567 233.609 52.5091 232.553 54.2257L232.157 50.8586C233.345 49.0541 234.556 47.5576 235.788 46.3692C237.064 45.1368 238.451 44.2125 239.947 43.5964C241.444 42.9361 243.116 42.606 244.965 42.606C247.078 42.606 248.904 43.0022 250.445 43.7944C252.029 44.5427 253.24 45.709 254.076 47.2935C254.956 48.834 255.396 50.8146 255.396 53.2354V72.1173C255.396 72.7335 255.616 73.2176 256.056 73.5698C256.497 73.9219 257.113 74.1639 257.905 74.296C258.741 74.428 259.666 74.494 260.678 74.494H260.81V77.0688ZM284.886 56.8665V59.7054C282.641 59.9255 280.638 60.2116 278.878 60.5637C277.161 60.9158 275.665 61.3559 274.388 61.8841C273.112 62.3682 272.056 62.9404 271.219 63.6006C270.427 64.2608 269.811 65.0311 269.371 65.9113C268.975 66.7916 268.777 67.7819 268.777 68.8823C268.777 70.0707 269.019 71.105 269.503 71.9853C269.987 72.8215 270.669 73.4597 271.55 73.8999C272.474 74.34 273.508 74.5601 274.653 74.5601C276.193 74.5601 277.557 74.208 278.746 73.5037C279.934 72.7995 280.991 71.8092 281.915 70.5328C282.839 69.2564 283.653 67.7819 284.358 66.1094L284.82 69.2784C284.16 70.9949 283.257 72.4914 282.113 73.7678C281.013 75.0442 279.714 76.0345 278.218 76.7387C276.721 77.399 275.027 77.7291 273.134 77.7291C271.241 77.7291 269.503 77.3769 267.918 76.6727C266.378 75.9685 265.146 74.9562 264.221 73.6358C263.297 72.2713 262.835 70.6868 262.835 68.8823C262.835 67.0777 263.297 65.5152 264.221 64.1948C265.146 62.8744 266.532 61.752 268.381 60.8278C270.273 59.8595 272.584 59.0672 275.313 58.451C278.086 57.7908 281.277 57.2626 284.886 56.8665ZM283.697 77.0688V70.2027H283.103V53.5655C283.103 51.6289 282.839 50.0884 282.311 48.944C281.827 47.7997 281.079 46.9854 280.066 46.5013C279.054 46.0171 277.822 45.775 276.369 45.775C274.08 45.775 272.21 46.2372 270.757 47.1615C269.349 48.0858 268.205 49.1861 267.324 50.4625C267.324 49.8023 267.39 49.2301 267.522 48.746C267.698 48.2618 267.918 47.8437 268.183 47.4916C268.491 47.0955 268.843 46.7874 269.239 46.5673C269.635 46.3472 270.053 46.1932 270.493 46.1051V53.0373H264.881V46.5013C265.542 46.0171 266.422 45.4669 267.522 44.8507C268.667 44.2346 270.009 43.7064 271.55 43.2663C273.134 42.8261 274.873 42.606 276.765 42.606C278.438 42.606 280 42.8041 281.453 43.2002C282.905 43.5523 284.182 44.1465 285.282 44.9828C286.426 45.8191 287.307 46.9194 287.923 48.2838C288.583 49.6042 288.913 51.2327 288.913 53.1694V72.1173C288.913 72.7335 289.133 73.2176 289.573 73.5698C290.057 73.9219 290.696 74.1639 291.488 74.296C292.28 74.428 293.182 74.494 294.195 74.494V77.0688H283.697ZM306.017 28.1475V72.1173C306.017 73.0856 306.501 73.7238 307.469 74.0319C308.481 74.34 309.758 74.494 311.298 74.494H311.43V77.0688H294.727V74.494H294.859C296.399 74.494 297.654 74.34 298.622 74.0319C299.635 73.7238 300.141 73.0856 300.141 72.1173V33.8913C300.141 33.2311 299.965 32.7249 299.613 32.3728C299.26 32.0207 298.732 31.7346 298.028 31.5146C297.368 31.2945 296.488 31.0964 295.387 30.9204L294.661 30.7883V28.1475H306.017ZM331.812 73.7678L330.821 76.2766L328.048 78.4553L315.306 48.1518C315.042 47.5356 314.69 47.0734 314.25 46.7653C313.81 46.4132 313.282 46.1932 312.666 46.1051C312.049 45.9731 311.345 45.9071 310.553 45.9071H310.487V43.2663H326.398V45.9071H326.266C325.43 45.9071 324.571 45.9291 323.691 45.9731C322.855 46.0171 322.128 46.0831 321.512 46.1712C320.94 46.2152 320.654 46.3252 320.654 46.5013L331.812 73.7678ZM332.142 75.9465C330.953 78.8954 329.765 81.4262 328.577 83.5389C327.432 85.6515 326.222 87.3461 324.945 88.6225C323.713 89.9429 322.415 90.8892 321.05 91.4614C319.73 92.0776 318.277 92.3856 316.693 92.3856C315.548 92.3856 314.602 92.2536 313.854 91.9895C313.106 91.7695 312.489 91.5054 312.005 91.1973V85.8496C312.137 85.8936 312.423 86.0257 312.864 86.2457C313.304 86.4658 313.876 86.6639 314.58 86.8399C315.284 87.016 316.077 87.104 316.957 87.104C318.013 87.104 319.048 86.9499 320.06 86.6418C321.116 86.3338 322.15 85.6956 323.163 84.7272C324.219 83.803 325.275 82.4605 326.332 80.7C327.432 78.9394 328.51 76.6067 329.567 73.7018L330.161 72.3154L339.866 47.4916C339.866 47.1395 339.602 46.8534 339.074 46.6333C338.546 46.4132 337.885 46.2372 337.093 46.1051C336.301 45.9731 335.487 45.9071 334.65 45.9071H334.452V43.2663H347.656V45.9071H347.59C346.93 45.9071 346.292 45.9951 345.676 46.1712C345.104 46.3472 344.576 46.6553 344.091 47.0955C343.607 47.4916 343.211 48.0858 342.903 48.878L332.142 75.9465ZM352.946 75.0222L351.758 74.0319H363.114C364.478 74.0319 365.622 73.9879 366.547 73.8999C367.515 73.8118 368.307 73.6578 368.923 73.4377C369.584 73.2176 370.068 72.9095 370.376 72.5134C370.728 72.0733 370.97 71.5231 371.102 70.8629L371.96 65.4492H374.997V77.0688H347.599V73.6358L368.989 45.3789L370.244 46.2372H360.341C358.976 46.2372 357.81 46.2812 356.842 46.3692C355.917 46.4573 355.147 46.6113 354.531 46.8314C353.959 47.0514 353.497 47.3595 353.144 47.7557C352.836 48.1518 352.616 48.6799 352.484 49.3402L351.626 53.8956H348.721V43.2663H374.403V46.3692L352.946 75.0222ZM382.896 60.4977C382.896 62.6983 383.16 64.679 383.688 66.4395C384.26 68.2001 385.074 69.6965 386.131 70.9289C387.187 72.1173 388.397 73.0196 389.762 73.6358C391.17 74.252 392.689 74.5601 394.317 74.5601C396.122 74.5601 397.684 74.23 399.005 73.5698C400.369 72.9095 401.513 72.0513 402.438 70.9949C403.362 69.9386 404.154 68.8603 404.814 67.7599L407.455 70.0707C406.619 71.5231 405.563 72.8435 404.286 74.0319C403.054 75.1763 401.579 76.0785 399.863 76.7387C398.19 77.399 396.276 77.7291 394.119 77.7291C390.906 77.7291 388.001 77.0248 385.404 75.6164C382.808 74.208 380.739 72.2053 379.198 69.6085C377.658 66.9677 376.888 63.8867 376.888 60.3656C376.888 56.8445 377.592 53.7635 379 51.1227C380.453 48.4379 382.389 46.3472 384.81 44.8507C387.231 43.3543 389.938 42.606 392.931 42.606C395.307 42.606 397.398 43.0022 399.203 43.7944C401.007 44.5867 402.526 45.731 403.758 47.2275C405.034 48.724 406.003 50.6166 406.663 52.9053C407.323 55.15 407.653 57.7908 407.653 60.8278H381.443V57.7248H403.362L401.513 58.9132C401.469 56.7125 401.271 54.7979 400.919 53.1694C400.567 51.5408 400.039 50.1764 399.335 49.0761C398.63 47.9757 397.75 47.1615 396.694 46.6333C395.638 46.0611 394.383 45.775 392.931 45.775C391.522 45.775 390.202 46.1051 388.969 46.7653C387.737 47.4256 386.659 48.3939 385.734 49.6703C384.854 50.9467 384.15 52.5092 383.622 54.3577C383.138 56.1623 382.896 58.2089 382.896 60.4977Z" fill="#262424"/>
<g clipPath="url(#clip0_1_12321)">
<rect x="4.57764e-05" width="110.034" height="110.034" rx="33.0103" fill="url(#paint0_linear_1_12321)"/>
<rect x="2.06324" y="2.06315" width="105.908" height="105.908" rx="30.9472" stroke="#4F4F4F" strokeOpacity="0.2" strokeWidth="4.12629"/>
<path d="M39.4311 32.7493L68.3216 49.2938V84.1657L84.6629 74.2046V39.9269L54.3729 23.3823L39.4311 32.7493Z" fill="#F7F7F7"/>
<path d="M26.172 49.2938L47.0951 61.2722V86.652L61.4896 78.5048V53.6176L39.4249 41.6392L26.172 49.2938Z" fill="#F7F7F7"/>
<path d="M39.8003 66.1904L26.133 74.752L39.8003 82.1408V66.1904Z" fill="#F7F7F7"/>
</g>
<defs>
<linearGradient id="paint0_linear_1_12321" x1="55.0173" y1="0" x2="55.0173" y2="110.034" gradientUnits="userSpaceOnUse">
<stop stop-color="#262424"/>
<stop offset="1" stop-color="#0C0C0C"/>
</linearGradient>
<clipPath id="clip0_1_12321">
<rect x="4.57764e-05" width="110.034" height="110.034" rx="33.0103" fill="white"/>
</clipPath>
</defs>
</svg>
