<svg width="768" height="560" viewBox="0 0 768 560" fill="none" xmlns="http://www.w3.org/2000/svg">
<g clip-path="url(#clip0_84_1503)">
<g clip-path="url(#clip1_84_1503)">
<line x1="0.5" y1="-208" x2="0.5" y2="560" stroke="#EAECF0"/>
<line x1="48.5" y1="-208" x2="48.5" y2="560" stroke="#EAECF0"/>
<line x1="96.5" y1="-208" x2="96.5" y2="560" stroke="#EAECF0"/>
<line x1="144.5" y1="-208" x2="144.5" y2="560" stroke="#EAECF0"/>
<line x1="192.5" y1="-208" x2="192.5" y2="560" stroke="#EAECF0"/>
<line x1="240.5" y1="-208" x2="240.5" y2="560" stroke="#EAECF0"/>
<line x1="288.5" y1="-208" x2="288.5" y2="560" stroke="#EAECF0"/>
<line x1="336.5" y1="-208" x2="336.5" y2="560" stroke="#EAECF0"/>
<line x1="384.5" y1="-208" x2="384.5" y2="560" stroke="#EAECF0"/>
<line x1="432.5" y1="-208" x2="432.5" y2="560" stroke="#EAECF0"/>
<line x1="480.5" y1="-208" x2="480.5" y2="560" stroke="#EAECF0"/>
<line x1="528.5" y1="-208" x2="528.5" y2="560" stroke="#EAECF0"/>
<line x1="576.5" y1="-208" x2="576.5" y2="560" stroke="#EAECF0"/>
<line x1="624.5" y1="-208" x2="624.5" y2="560" stroke="#EAECF0"/>
<line x1="672.5" y1="-208" x2="672.5" y2="560" stroke="#EAECF0"/>
<line x1="720.5" y1="-208" x2="720.5" y2="560" stroke="#EAECF0"/>
</g>
<rect x="0.5" y="-207.5" width="767" height="767" stroke="#EAECF0"/>
<g clip-path="url(#clip2_84_1503)">
<line y1="31.5" x2="768" y2="31.5" stroke="#EAECF0"/>
<line y1="79.5" x2="768" y2="79.5" stroke="#EAECF0"/>
<line y1="127.5" x2="768" y2="127.5" stroke="#EAECF0"/>
<line y1="175.5" x2="768" y2="175.5" stroke="#EAECF0"/>
<line y1="223.5" x2="768" y2="223.5" stroke="#EAECF0"/>
<line y1="271.5" x2="768" y2="271.5" stroke="#EAECF0"/>
<line y1="319.5" x2="768" y2="319.5" stroke="#EAECF0"/>
<line y1="367.5" x2="768" y2="367.5" stroke="#EAECF0"/>
<line y1="415.5" x2="768" y2="415.5" stroke="#EAECF0"/>
<line y1="463.5" x2="768" y2="463.5" stroke="#EAECF0"/>
<line y1="511.5" x2="768" y2="511.5" stroke="#EAECF0"/>
<line y1="559.5" x2="768" y2="559.5" stroke="#EAECF0"/>
</g>
<rect x="0.5" y="-207.5" width="767" height="767" stroke="#EAECF0"/>
</g>
<defs>
<clipPath id="clip0_84_1503">
<rect width="768" height="768" fill="white" transform="translate(0 -208)"/>
</clipPath>
<clipPath id="clip1_84_1503">
<rect y="-208" width="768" height="768" fill="white"/>
</clipPath>
<clipPath id="clip2_84_1503">
<rect y="-208" width="768" height="768" fill="white"/>
</clipPath>
</defs>
</svg>
